<mxfile host="app.diagrams.net" modified="2024-02-04T15:41:20.197Z" agent="Mozilla/5.0 (Macintosh; Intel Mac OS X 10_15_7) AppleWebKit/537.36 (KHTML, like Gecko) Chrome/120.0.0.0 Safari/537.36" etag="d0z4XNPn2Gsl7stEIItu" version="23.1.1" type="gitlab">
  <diagram name="Page-1" id="03018318-947c-dd8e-b7a3-06fadd420f32">
    <mxGraphModel dx="1242" dy="819" grid="1" gridSize="10" guides="1" tooltips="1" connect="1" arrows="1" fold="1" page="1" pageScale="1" pageWidth="1100" pageHeight="850" background="none" math="0" shadow="0">
      <root>
        <mxCell id="0" />
        <mxCell id="1" parent="0" />
        <mxCell id="677b7b8949515195-1" value="" style="whiteSpace=wrap;html=1;rounded=0;shadow=0;labelBackgroundColor=none;strokeColor=#000000;strokeWidth=1;fillColor=none;fontFamily=Verdana;fontSize=12;fontColor=#000000;align=center;comic=1;" parent="1" vertex="1">
          <mxGeometry x="20" y="20" width="1060" height="810" as="geometry" />
        </mxCell>
        <mxCell id="677b7b8949515195-9" value="" style="line;strokeWidth=1;html=1;rounded=0;shadow=0;labelBackgroundColor=none;fillColor=none;fontFamily=Verdana;fontSize=14;fontColor=#000000;align=center;comic=1;" parent="1" vertex="1">
          <mxGeometry x="20" y="140" width="1060" height="10" as="geometry" />
        </mxCell>
        <mxCell id="677b7b8949515195-15" value="&lt;div style=&quot;&quot;&gt;&lt;span style=&quot;font-size: 18px;&quot;&gt;I&#39;m 90% sure its a Bean!&lt;/span&gt;&lt;/div&gt;" style="whiteSpace=wrap;html=1;rounded=0;shadow=0;labelBackgroundColor=none;strokeWidth=1;fillColor=none;fontFamily=Verdana;fontSize=12;align=center;verticalAlign=top;spacing=10;comic=1;" parent="1" vertex="1">
          <mxGeometry x="690" y="623" width="380" height="70" as="geometry" />
        </mxCell>
        <mxCell id="677b7b8949515195-16" value="" style="verticalLabelPosition=bottom;shadow=0;dashed=0;align=center;html=1;verticalAlign=top;strokeWidth=1;shape=mxgraph.mockup.graphics.simpleIcon;strokeColor=#999999;rounded=0;labelBackgroundColor=none;fontFamily=Verdana;fontSize=14;fontColor=#000000;comic=1;" parent="1" vertex="1">
          <mxGeometry x="100" y="250" width="500" height="310" as="geometry" />
        </mxCell>
        <mxCell id="677b7b8949515195-26" value="" style="whiteSpace=wrap;html=1;rounded=0;shadow=0;labelBackgroundColor=none;strokeWidth=1;fillColor=none;fontFamily=Verdana;fontSize=12;align=center;comic=1;" parent="1" vertex="1">
          <mxGeometry x="240" y="590" width="230" height="60" as="geometry" />
        </mxCell>
        <mxCell id="677b7b8949515195-42" value="&lt;font style=&quot;font-size: 24px;&quot;&gt;Start&amp;nbsp; Guessing!&lt;/font&gt;" style="text;html=1;points=[];align=left;verticalAlign=top;spacingTop=-4;fontSize=14;fontFamily=Verdana" parent="1" vertex="1">
          <mxGeometry x="260" y="603" width="170" height="20" as="geometry" />
        </mxCell>
        <mxCell id="NoBVTR9UQ4-nwhXRhiRS-1" value="VegeFacts" style="whiteSpace=wrap;html=1;rounded=0;shadow=0;labelBackgroundColor=none;strokeWidth=1;fontFamily=Verdana;fontSize=28;align=center;comic=1;" vertex="1" parent="1">
          <mxGeometry x="120" y="60" width="190" height="50" as="geometry" />
        </mxCell>
        <mxCell id="NoBVTR9UQ4-nwhXRhiRS-2" value="Home" style="text;html=1;points=[];align=left;verticalAlign=top;spacingTop=-4;fontSize=14;fontFamily=Verdana" vertex="1" parent="1">
          <mxGeometry x="550" y="75" width="60" height="20" as="geometry" />
        </mxCell>
        <mxCell id="NoBVTR9UQ4-nwhXRhiRS-3" value="Predict" style="text;html=1;points=[];align=left;verticalAlign=top;spacingTop=-4;fontSize=14;fontFamily=Verdana" vertex="1" parent="1">
          <mxGeometry x="620" y="75" width="60" height="20" as="geometry" />
        </mxCell>
        <mxCell id="NoBVTR9UQ4-nwhXRhiRS-4" value="Veges!" style="text;html=1;points=[];align=left;verticalAlign=top;spacingTop=-4;fontSize=14;fontFamily=Verdana" vertex="1" parent="1">
          <mxGeometry x="700" y="75" width="60" height="20" as="geometry" />
        </mxCell>
        <mxCell id="NoBVTR9UQ4-nwhXRhiRS-5" value="History" style="text;html=1;points=[];align=left;verticalAlign=top;spacingTop=-4;fontSize=14;fontFamily=Verdana" vertex="1" parent="1">
          <mxGeometry x="770" y="75" width="60" height="20" as="geometry" />
        </mxCell>
        <mxCell id="NoBVTR9UQ4-nwhXRhiRS-6" value="Profile" style="text;html=1;points=[];align=left;verticalAlign=top;spacingTop=-4;fontSize=14;fontFamily=Verdana" vertex="1" parent="1">
          <mxGeometry x="850" y="75" width="60" height="20" as="geometry" />
        </mxCell>
        <mxCell id="NoBVTR9UQ4-nwhXRhiRS-7" value="Login/Signup" style="text;html=1;points=[];align=left;verticalAlign=top;spacingTop=-4;fontSize=14;fontFamily=Verdana" vertex="1" parent="1">
          <mxGeometry x="920" y="75" width="60" height="20" as="geometry" />
        </mxCell>
        <mxCell id="NoBVTR9UQ4-nwhXRhiRS-8" value="" style="shape=image;verticalLabelPosition=bottom;labelBackgroundColor=default;verticalAlign=top;aspect=fixed;imageAspect=0;image=https://www.shutterstock.com/shutterstock/photos/664425550/display_1500/stock-vector-thinking-tomato-character-cartoon-collection-vector-illustration-664425550.jpg;" vertex="1" parent="1">
          <mxGeometry x="730" y="239.99999999999997" width="290" height="309.34" as="geometry" />
        </mxCell>
        <mxCell id="NoBVTR9UQ4-nwhXRhiRS-9" value="&lt;font style=&quot;font-size: 24px;&quot;&gt;Drop image to let me guess!&lt;/font&gt;" style="text;html=1;points=[];align=left;verticalAlign=top;spacingTop=-4;fontSize=14;fontFamily=Verdana" vertex="1" parent="1">
          <mxGeometry x="100" y="200" width="215" height="30" as="geometry" />
        </mxCell>
      </root>
    </mxGraphModel>
  </diagram>
</mxfile>
